<svg width="16" height="16" viewBox="0 0 16 16" fill="currentColor" xmlns="http://www.w3.org/2000/svg">
    <g clip-path="url(#clip0_1_28336)">
        <path fill-rule="evenodd" clip-rule="evenodd"
            d="M1.33333 0C0.596953 0 0 0.596953 0 1.33333V14.6667C0 15.403 0.596952 16 1.33333 16H7.66665C8.40303 16 8.99999 15.403 8.99999 14.6667V9.09518H9.89581C10.2688 9.09518 10.5711 9.39752 10.5711 9.77048V13.5652C10.5711 14.9064 11.6584 15.9938 12.9997 15.9938C14.3409 15.9938 15.4282 14.9064 15.4282 13.5652V5.66934C15.4282 4.83053 15.1067 4.02362 14.5298 3.41468L12.2195 0.975948C11.9301 0.670475 11.4478 0.657442 11.1423 0.946836C10.8369 1.23623 10.8238 1.71847 11.1132 2.02394L12.6758 3.67329C11.7369 3.75312 10.9998 4.54046 10.9998 5.49996C10.9998 6.51248 11.8207 7.33329 12.8332 7.33329C13.2331 7.33329 13.6031 7.20524 13.9044 6.98791V13.5652C13.9044 14.0649 13.4994 14.4699 12.9997 14.4699C12.5 14.4699 12.0949 14.0649 12.0949 13.5652V9.77048C12.0949 8.55595 11.1103 7.57137 9.89581 7.57137H8.99999V1.33333C8.99999 0.596953 8.40303 0 7.66666 0H1.33333ZM2.6662 1.33332C2.11391 1.33332 1.6662 1.78104 1.6662 2.33332V5.99999H7.33285V2.33332C7.33285 1.78104 6.88514 1.33332 6.33285 1.33332H2.6662Z"
            fill="currentColor" />
    </g>
    <defs>
        <clipPath id="clip0_1_28336">
            <rect width="16" height="16" fill="currentColor" />
        </clipPath>
    </defs>
</svg>