<svg width="13" height="16" viewBox="0 0 13 16" fill="none" xmlns="http://www.w3.org/2000/svg">
    <path
        d="M6.50489 0C3.08982 0 0 2.61822 0 6.66751C0 9.25321 1.99212 12.2942 5.96824 15.7988C6.27722 16.0671 6.74069 16.0671 7.04968 15.7988C11.0177 12.2942 13.0098 9.25321 13.0098 6.66751C13.0098 2.61822 9.91996 0 6.50489 0ZM6.50489 8.13111C5.61047 8.13111 4.87867 7.39931 4.87867 6.50489C4.87867 5.61047 5.61047 4.87867 6.50489 4.87867C7.39931 4.87867 8.13111 5.61047 8.13111 6.50489C8.13111 7.39931 7.39931 8.13111 6.50489 8.13111Z"
        fill="#0E62F0" />
</svg>