<svg width="15" height="24" viewBox="0 0 15 24" fill="none" xmlns="http://www.w3.org/2000/svg">
<path d="M6.775 14.475L3.15 10.85C3.1 10.8 3.0625 10.7458 3.0375 10.6875C3.0125 10.6292 3 10.5667 3 10.5C3 10.3667 3.04583 10.25 3.1375 10.15C3.22917 10.05 3.35 10 3.5 10H11.1C11.25 10 11.3708 10.05 11.4625 10.15C11.5542 10.25 11.6 10.3667 11.6 10.5C11.6 10.5333 11.55 10.65 11.45 10.85L7.825 14.475C7.74167 14.5583 7.65833 14.6167 7.575 14.65C7.49167 14.6833 7.4 14.7 7.3 14.7C7.2 14.7 7.10833 14.6833 7.025 14.65C6.94167 14.6167 6.85833 14.5583 6.775 14.475Z" fill="#0E62F0"/>
</svg>
