<svg width="20" height="24" viewBox="0 0 20 24" fill="none" xmlns="http://www.w3.org/2000/svg">
<path d="M9.775 14.475L6.15 10.85C6.1 10.8 6.0625 10.7458 6.0375 10.6875C6.0125 10.6292 6 10.5667 6 10.5C6 10.3667 6.04583 10.25 6.1375 10.15C6.22917 10.05 6.35 10 6.5 10H14.1C14.25 10 14.3708 10.05 14.4625 10.15C14.5542 10.25 14.6 10.3667 14.6 10.5C14.6 10.5333 14.55 10.65 14.45 10.85L10.825 14.475C10.7417 14.5583 10.6583 14.6167 10.575 14.65C10.4917 14.6833 10.4 14.7 10.3 14.7C10.2 14.7 10.1083 14.6833 10.025 14.65C9.94167 14.6167 9.85833 14.5583 9.775 14.475Z" fill="white"/>
</svg>
