<svg width="218" height="28" viewBox="0 0 218 28" fill="none" xmlns="http://www.w3.org/2000/svg">
<g clip-path="url(#clip0_2484_3020)">
<path d="M11.6999 17.5481H15.3702C14.8137 18.1049 14.2373 18.6092 13.608 18.9564C12.7533 19.4346 11.8457 19.6639 10.8917 19.6639C10.1364 19.6639 9.48052 19.5394 8.87764 19.2577C8.27475 18.9826 7.74474 18.6027 7.32074 18.0983C6.8901 17.5939 6.53897 17.0175 6.31372 16.3362C6.06197 15.655 5.96259 14.8755 5.96259 14.0436C5.96259 13.2117 6.08847 12.4584 6.31372 11.7509C6.53897 11.0435 6.87023 10.4671 7.32074 9.96267C7.75137 9.45829 8.24825 9.05871 8.85776 8.77704C9.43414 8.50192 10.09 8.35126 10.7923 8.35126C11.7463 8.35126 12.6274 8.60018 13.4821 9.13077C14.3367 9.63515 14.9661 10.3164 15.3901 11.1745H20.2463V2.65894H15.3901V3.99522C14.0585 3.43844 12.6009 3.13712 11.0175 3.13712C9.43414 3.13712 8.023 3.41224 6.69135 3.94282C5.35971 4.49961 4.20031 5.25291 3.1933 6.23547C2.18628 7.21804 1.41115 8.35126 0.854638 9.63515C0.298129 10.919 0 12.3274 0 13.8405C0 15.6026 0.278254 17.142 0.828138 18.4979C1.38465 19.8604 2.13328 21.0198 3.1138 21.9762C4.06781 22.9325 5.2007 23.6662 6.45947 24.1444C7.71824 24.6488 9.04989 24.878 10.4345 24.878C12.4221 24.878 14.1843 24.1968 15.7147 22.9129V24.7274H20.5709V13.3165H11.7728V17.5481H11.6999Z" fill="white"/>
<path d="M53.0585 9.13953C52.0987 9.13953 51.2123 9.41587 50.3526 10.0015C49.4928 10.5805 48.7863 11.3963 48.2265 12.482V9.13953H41.1418V14.0216H42.9347V19.9959H41.1418V24.878H50.4992V19.9959H48.7064V15.9231C49.1596 15.3639 50.0193 14.6335 50.9324 14.4032C51.8455 14.1532 52.6519 14.0216 53.7649 14.0216V9.16585C53.7649 9.16585 53.585 9.13953 53.5117 9.13953H53.0585Z" fill="white"/>
<path d="M74.3359 9.13953H65.9479V14.0135H67.0527L65.3724 19.8005L63.6922 14.0135H64.8234V9.13953H55.635V14.0135H58.3207L61.9855 24.878H68.2368L71.9015 14.0135H74.3359V9.13953Z" fill="white"/>
<path d="M39.7392 19.7226H37.9552V15.6886C37.9552 13.5962 37.2712 11.3267 35.8695 10.2641C34.4678 9.2015 32.5095 8.67676 29.961 8.67676C28.5861 8.67676 27.3119 8.82762 26.1181 9.15558C24.9243 9.48355 23.8043 9.96238 22.7044 10.6183L24.3878 14.0226C25.2529 13.4913 26.0711 13.0649 26.8558 12.7894C27.6472 12.5139 28.4855 12.3631 29.3775 12.3631C30.3432 12.3631 31.0608 12.5402 31.4901 12.8681C31.926 13.1961 32.154 13.7012 32.154 14.3833V15.2885C31.7449 15.0852 31.262 14.9605 30.7054 14.8622C30.1487 14.7638 29.5586 14.7113 28.9214 14.7113C27.5734 14.7113 26.3729 15.0655 25.3334 15.4918C24.2872 15.9182 23.4757 16.6528 22.8654 17.4334C22.2819 18.1877 21.9734 19.0994 21.9734 20.0833C21.9734 20.9885 22.2282 21.8019 22.7111 22.5299C23.194 23.2646 23.8848 23.8418 24.7231 24.2485C25.5614 24.6551 26.5272 24.8782 27.6002 24.8782C28.6733 24.8782 29.6592 24.6486 30.6048 24.196C31.1614 23.9205 31.6711 23.5401 32.1607 23.1334V24.5699H35.9768C37.3785 24.6224 39.0551 24.5699 39.0551 24.5699H39.7392V19.7291V19.7226ZM31.3895 20.431C31.1346 20.5818 30.806 20.7327 30.4237 20.8377C30.0414 20.936 29.686 20.9885 29.3305 20.9885C28.9751 20.9885 28.6465 20.936 28.3648 20.8114C28.0831 20.6868 27.8551 20.5359 27.7008 20.3064C27.5466 20.103 27.446 19.88 27.446 19.5979C27.446 19.1191 27.674 18.7387 28.1569 18.4107C28.6398 18.109 29.2232 17.9581 29.914 17.9581C30.2426 17.9581 30.5981 17.9844 31.034 18.0565C31.4431 18.1352 31.8254 18.2336 32.154 18.332V19.3946C32.154 19.5717 32.0802 19.7488 31.9528 19.9259C31.7986 20.103 31.6242 20.2539 31.3895 20.4047V20.431Z" fill="white"/>
<path d="M91.0992 13.2356C90.446 12.0074 89.4696 11.0275 88.1963 10.2697C86.9164 9.51843 85.3396 9.13953 83.4396 9.13953C81.5395 9.13953 79.9825 9.51843 78.6828 10.2697C77.4029 11.021 76.4265 12.027 75.7799 13.2813C74.6056 15.4894 74.5264 18.1548 75.3511 20.5197C76.6508 24.2108 79.811 25.3409 83.367 25.3409C84.7195 25.3409 85.3726 25.2168 86.3952 24.9882H91.2311V20.1408H86.3952C86.3226 20.6177 86.1709 21.0423 85.9202 21.369C85.6695 21.7218 85.3462 21.97 84.9438 22.1725C84.5413 22.375 84.0927 22.4469 83.5649 22.4469C83.0371 22.4469 82.5885 22.3489 82.186 22.1725C81.7836 21.97 81.4603 21.7218 81.2096 21.369C80.9589 21.0162 80.8072 20.6177 80.7346 20.1147C80.7346 20.1147 80.6356 19.187 80.7346 18.9061H91.9503C91.9766 18.6775 92.0228 18.4292 92.0492 18.1287C92.0756 17.8282 92.102 17.5277 92.102 17.2272C92.102 15.7965 91.7787 14.4376 91.0992 13.2095V13.2356ZM80.7346 15.5221C80.7874 15.0191 80.9325 14.6206 81.1634 14.2678C81.3877 13.915 81.6912 13.6668 82.0673 13.4643C82.4433 13.2617 82.8656 13.1899 83.3472 13.1899C83.8288 13.1899 84.251 13.2879 84.6271 13.4643C85.0031 13.6668 85.3 13.915 85.5309 14.2678C85.7553 14.6206 85.907 15.0191 85.9598 15.5221H80.7544H80.7346Z" fill="white"/>
<path d="M105.072 9.13953H111.27V14.0348H108.144L106.295 16.9693L108.144 20.0025L111.27 20.0157V24.878H105.072L102.617 20.0157L100.17 24.878H93.9717V20.0157L97.0975 20.0288L98.9463 16.9693L97.0975 14.0216L93.9717 14.0348V9.13953H100.17L102.617 14.0348L105.072 9.13953Z" fill="white"/>
</g>
<line x1="120.319" y1="0.0577393" x2="120.319" y2="27.9423" stroke="white" stroke-width="1.47466"/>
<path d="M133.636 5.1647C133.613 5.12595 133.531 5.06783 133.392 4.99033C133.252 4.90509 133.078 4.81597 132.869 4.72298C132.659 4.62999 132.431 4.54862 132.183 4.47887C131.935 4.40913 131.687 4.37426 131.439 4.37426C131.113 4.37426 130.862 4.43238 130.683 4.54862C130.505 4.65711 130.416 4.8276 130.416 5.06008C130.416 5.24606 130.482 5.3933 130.614 5.5018C130.753 5.61029 130.951 5.70715 131.206 5.7924C131.462 5.86989 131.776 5.96288 132.148 6.07138C132.675 6.21087 133.132 6.38135 133.52 6.58284C133.907 6.77657 134.202 7.02843 134.403 7.3384C134.612 7.64838 134.717 8.0591 134.717 8.57056C134.717 9.03553 134.632 9.43074 134.461 9.75622C134.291 10.0739 134.058 10.3336 133.764 10.535C133.477 10.7288 133.148 10.8721 132.776 10.9651C132.404 11.0504 132.02 11.093 131.625 11.093C131.222 11.093 130.807 11.0542 130.381 10.9768C129.963 10.8915 129.56 10.7753 129.172 10.628C128.785 10.473 128.428 10.2871 128.103 10.0701L128.94 8.40782C128.971 8.44657 129.071 8.52019 129.242 8.62868C129.412 8.72942 129.622 8.83792 129.87 8.95416C130.125 9.06265 130.408 9.15952 130.718 9.24476C131.028 9.33 131.342 9.37262 131.66 9.37262C132.001 9.37262 132.253 9.31838 132.415 9.20989C132.586 9.1014 132.671 8.95028 132.671 8.75655C132.671 8.54731 132.582 8.38457 132.404 8.26833C132.233 8.15209 131.997 8.04748 131.695 7.95448C131.4 7.86149 131.059 7.75687 130.672 7.64063C130.168 7.48564 129.75 7.31128 129.416 7.11755C129.091 6.92381 128.847 6.68745 128.684 6.40848C128.529 6.1295 128.452 5.78077 128.452 5.36231C128.452 4.7811 128.587 4.29289 128.858 3.89767C129.137 3.4947 129.509 3.19247 129.974 2.99099C130.439 2.78175 130.947 2.67714 131.497 2.67714C131.884 2.67714 132.256 2.72363 132.613 2.81663C132.977 2.90962 133.314 3.02586 133.624 3.16535C133.942 3.30484 134.225 3.44433 134.473 3.58382L133.636 5.1647ZM142.345 11V6.083L140.567 9.66323H139.52L137.742 6.083V11H135.836V2.74688H137.905L140.043 7.05943L142.194 2.74688H144.251V11H142.345ZM147.917 2.74688H149.975L152.811 11H150.858L150.219 9.15177H147.65L147.022 11H145.069L147.917 2.74688ZM149.905 7.83824L148.94 4.66486L147.952 7.83824H149.905ZM153.624 11V2.74688H157.343C157.731 2.74688 158.087 2.82825 158.413 2.99099C158.746 3.14598 159.033 3.35908 159.273 3.63031C159.513 3.89379 159.699 4.19215 159.831 4.52537C159.97 4.85859 160.04 5.19569 160.04 5.53667C160.04 5.87764 159.986 6.20312 159.877 6.51309C159.769 6.81532 159.614 7.09042 159.412 7.3384C159.211 7.57864 158.971 7.77625 158.692 7.93123L160.505 11H158.401L156.82 8.33808H155.53V11H153.624ZM155.53 6.67583H157.274C157.429 6.67583 157.564 6.62933 157.68 6.53634C157.804 6.4356 157.905 6.29998 157.983 6.1295C158.06 5.95901 158.099 5.7614 158.099 5.53667C158.099 5.31193 158.052 5.1182 157.959 4.95546C157.874 4.78497 157.766 4.65323 157.634 4.56024C157.502 4.46725 157.363 4.42075 157.215 4.42075H155.53V6.67583ZM167.597 4.42075H165.087V11H163.18V4.42075H160.658V2.74688H167.597V4.42075ZM134.973 18.4208H132.462V25H130.555V18.4208H128.033V16.7469H134.973V18.4208ZM141.704 23.3261V25H135.904V16.7469H141.599V18.4208H137.81V20.0249H141.065V21.5709H137.81V23.3261H141.704ZM142.249 20.8037C142.249 20.3 142.342 19.8079 142.528 19.3274C142.714 18.8392 142.986 18.3975 143.342 18.0023C143.699 17.6071 144.133 17.2932 144.644 17.0607C145.155 16.8205 145.737 16.7004 146.388 16.7004C147.163 16.7004 147.833 16.867 148.399 17.2002C148.972 17.5334 149.398 17.9674 149.677 18.5021L148.213 19.525C148.089 19.2306 147.922 19.002 147.713 18.8392C147.511 18.6765 147.287 18.5641 147.039 18.5021C146.798 18.4324 146.566 18.3975 146.341 18.3975C145.977 18.3975 145.659 18.4711 145.388 18.6184C145.117 18.7579 144.892 18.9477 144.714 19.1879C144.535 19.4282 144.404 19.6955 144.319 19.99C144.233 20.2845 144.191 20.579 144.191 20.8734C144.191 21.1989 144.241 21.5128 144.342 21.815C144.443 22.1172 144.586 22.3846 144.772 22.6171C144.966 22.8495 145.198 23.0355 145.469 23.175C145.741 23.3068 146.039 23.3726 146.364 23.3726C146.597 23.3726 146.833 23.3339 147.073 23.2564C147.314 23.1789 147.535 23.0588 147.736 22.896C147.945 22.7255 148.104 22.5047 148.213 22.2335L149.77 23.1518C149.607 23.5547 149.34 23.8996 148.968 24.1863C148.596 24.473 148.174 24.6939 147.701 24.8489C147.236 24.9961 146.775 25.0697 146.318 25.0697C145.721 25.0697 145.171 24.9496 144.667 24.7094C144.171 24.4614 143.741 24.1359 143.377 23.733C143.02 23.3223 142.742 22.865 142.54 22.3613C142.346 21.8499 142.249 21.3307 142.249 20.8037ZM157.831 16.7469V25H155.925V21.6174H152.635V25H150.729V16.7469H152.635V19.9435H155.925V16.7469H157.831ZM161.319 20.2806V25H159.413V16.7469H160.924L164.748 21.6058V16.7469H166.655V25H165.097L161.319 20.2806ZM171.848 25.0697C171.228 25.0697 170.667 24.9535 170.163 24.721C169.667 24.4808 169.237 24.1631 168.873 23.7678C168.516 23.3649 168.241 22.9154 168.047 22.4194C167.853 21.9157 167.757 21.3965 167.757 20.8618C167.757 20.3116 167.857 19.7885 168.059 19.2926C168.268 18.7966 168.555 18.3549 168.919 17.9674C169.291 17.5722 169.729 17.2622 170.233 17.0375C170.736 16.8128 171.286 16.7004 171.883 16.7004C172.495 16.7004 173.049 16.8205 173.545 17.0607C174.049 17.2932 174.479 17.6109 174.836 18.0139C175.2 18.4169 175.479 18.8702 175.673 19.3739C175.866 19.8699 175.963 20.3775 175.963 20.8967C175.963 21.4469 175.863 21.97 175.661 22.4659C175.46 22.9619 175.173 23.4075 174.801 23.8027C174.429 24.1902 173.991 24.5002 173.487 24.7326C172.991 24.9574 172.445 25.0697 171.848 25.0697ZM169.698 20.8851C169.698 21.2028 169.744 21.5128 169.837 21.815C169.93 22.1095 170.066 22.373 170.244 22.6054C170.43 22.8379 170.659 23.0239 170.93 23.1634C171.201 23.3029 171.511 23.3726 171.86 23.3726C172.224 23.3726 172.542 23.3029 172.813 23.1634C173.084 23.0162 173.309 22.8224 173.487 22.5822C173.666 22.342 173.797 22.0746 173.883 21.7801C173.976 21.4779 174.022 21.1718 174.022 20.8618C174.022 20.5441 173.976 20.238 173.883 19.9435C173.79 19.649 173.65 19.3856 173.464 19.1531C173.278 18.9128 173.049 18.7269 172.778 18.5951C172.507 18.4634 172.201 18.3975 171.86 18.3975C171.496 18.3975 171.178 18.4672 170.907 18.6067C170.643 18.7462 170.419 18.9361 170.233 19.1763C170.054 19.4088 169.919 19.6762 169.826 19.9784C169.74 20.2729 169.698 20.5751 169.698 20.8851ZM177.065 25V16.7469H178.971V23.3261H182.97V25H177.065ZM187.332 25.0697C186.712 25.0697 186.15 24.9535 185.646 24.721C185.151 24.4808 184.72 24.1631 184.356 23.7678C184 23.3649 183.725 22.9154 183.531 22.4194C183.337 21.9157 183.24 21.3965 183.24 20.8618C183.24 20.3116 183.341 19.7885 183.543 19.2926C183.752 18.7966 184.038 18.3549 184.403 17.9674C184.775 17.5722 185.213 17.2622 185.716 17.0375C186.22 16.8128 186.77 16.7004 187.367 16.7004C187.979 16.7004 188.533 16.8205 189.029 17.0607C189.533 17.2932 189.963 17.6109 190.319 18.0139C190.684 18.4169 190.963 18.8702 191.156 19.3739C191.35 19.8699 191.447 20.3775 191.447 20.8967C191.447 21.4469 191.346 21.97 191.145 22.4659C190.943 22.9619 190.656 23.4075 190.285 23.8027C189.913 24.1902 189.475 24.5002 188.971 24.7326C188.475 24.9574 187.929 25.0697 187.332 25.0697ZM185.182 20.8851C185.182 21.2028 185.228 21.5128 185.321 21.815C185.414 22.1095 185.55 22.373 185.728 22.6054C185.914 22.8379 186.142 23.0239 186.414 23.1634C186.685 23.3029 186.995 23.3726 187.344 23.3726C187.708 23.3726 188.026 23.3029 188.297 23.1634C188.568 23.0162 188.793 22.8224 188.971 22.5822C189.149 22.342 189.281 22.0746 189.366 21.7801C189.459 21.4779 189.506 21.1718 189.506 20.8618C189.506 20.5441 189.459 20.238 189.366 19.9435C189.273 19.649 189.134 19.3856 188.948 19.1531C188.762 18.9128 188.533 18.7269 188.262 18.5951C187.991 18.4634 187.685 18.3975 187.344 18.3975C186.979 18.3975 186.662 18.4672 186.39 18.6067C186.127 18.7462 185.902 18.9361 185.716 19.1763C185.538 19.4088 185.402 19.6762 185.309 19.9784C185.224 20.2729 185.182 20.5751 185.182 20.8851ZM196.047 25.0581C195.505 25.0581 194.993 24.9574 194.513 24.7559C194.033 24.5467 193.61 24.2561 193.246 23.8841C192.882 23.5044 192.595 23.0588 192.386 22.5473C192.184 22.0281 192.084 21.4508 192.084 20.8153C192.084 20.2419 192.188 19.7072 192.397 19.2112C192.607 18.7152 192.897 18.2774 193.269 17.8977C193.641 17.5179 194.075 17.2235 194.571 17.0142C195.075 16.7973 195.617 16.6888 196.198 16.6888C196.958 16.6888 197.628 16.8515 198.209 17.177C198.791 17.5024 199.221 17.9403 199.5 18.4905L198.082 19.5599C197.896 19.1957 197.624 18.909 197.268 18.6997C196.919 18.4905 196.539 18.3859 196.129 18.3859C195.819 18.3859 195.532 18.4518 195.269 18.5835C195.013 18.7075 194.788 18.8857 194.594 19.1182C194.408 19.3429 194.265 19.6064 194.164 19.9086C194.064 20.2109 194.013 20.5363 194.013 20.8851C194.013 21.2415 194.067 21.5709 194.176 21.8731C194.284 22.1753 194.435 22.4388 194.629 22.6636C194.823 22.8805 195.052 23.051 195.315 23.175C195.586 23.299 195.885 23.361 196.21 23.361C196.605 23.361 196.981 23.2641 197.338 23.0704C197.702 22.8689 198.035 22.5744 198.337 22.187V24.0701C197.679 24.7288 196.915 25.0581 196.047 25.0581ZM198.221 22.0707H196.617V20.6875H199.802V25H198.221V22.0707ZM201.062 25V16.7469H202.969V25H201.062ZM210.348 23.3261V25H204.547V16.7469H210.243V18.4208H206.454V20.0249H209.708V21.5709H206.454V23.3261H210.348ZM216.458 19.1647C216.434 19.1259 216.353 19.0678 216.214 18.9903C216.074 18.9051 215.9 18.816 215.69 18.723C215.481 18.63 215.253 18.5486 215.005 18.4789C214.757 18.4091 214.509 18.3743 214.261 18.3743C213.935 18.3743 213.683 18.4324 213.505 18.5486C213.327 18.6571 213.238 18.8276 213.238 19.0601C213.238 19.2461 213.304 19.3933 213.435 19.5018C213.575 19.6103 213.772 19.7072 214.028 19.7924C214.284 19.8699 214.598 19.9629 214.97 20.0714C215.497 20.2109 215.954 20.3814 216.341 20.5828C216.729 20.7766 217.023 21.0284 217.225 21.3384C217.434 21.6484 217.539 22.0591 217.539 22.5706C217.539 23.0355 217.453 23.4307 217.283 23.7562C217.112 24.0739 216.88 24.3336 216.586 24.535C216.299 24.7288 215.969 24.8721 215.597 24.9651C215.226 25.0504 214.842 25.093 214.447 25.093C214.044 25.093 213.629 25.0542 213.203 24.9768C212.784 24.8915 212.381 24.7753 211.994 24.628C211.607 24.473 211.25 24.2871 210.925 24.0701L211.762 22.4078C211.793 22.4466 211.893 22.5202 212.064 22.6287C212.234 22.7294 212.443 22.8379 212.691 22.9542C212.947 23.0626 213.23 23.1595 213.54 23.2448C213.85 23.33 214.164 23.3726 214.482 23.3726C214.823 23.3726 215.074 23.3184 215.237 23.2099C215.408 23.1014 215.493 22.9503 215.493 22.7565C215.493 22.5473 215.404 22.3846 215.226 22.2683C215.055 22.1521 214.819 22.0475 214.516 21.9545C214.222 21.8615 213.881 21.7569 213.494 21.6406C212.99 21.4856 212.571 21.3113 212.238 21.1175C211.913 20.9238 211.669 20.6875 211.506 20.4085C211.351 20.1295 211.273 19.7808 211.273 19.3623C211.273 18.7811 211.409 18.2929 211.68 17.8977C211.959 17.4947 212.331 17.1925 212.796 16.991C213.261 16.7818 213.769 16.6771 214.319 16.6771C214.706 16.6771 215.078 16.7236 215.435 16.8166C215.799 16.9096 216.136 17.0259 216.446 17.1653C216.764 17.3048 217.047 17.4443 217.295 17.5838L216.458 19.1647Z" fill="white"/>
<defs>
<clipPath id="clip0_2484_3020">
<rect width="111.27" height="22.682" fill="white" transform="translate(0 2.65906)"/>
</clipPath>
</defs>
</svg>
